Coordinates
version=1
nRows=5
nColumns=40
inDegrees=yes

Units are S.I. units (second, meters, Newtons, ...)
If the header above contains a line with 'inDegrees', this indicates whether rotational values are in degrees (yes) or radians (no).

endheader
time	pelvis_tilt	pelvis_list	pelvis_rotation	pelvis_tx	pelvis_ty	pelvis_tz	hip_flexion_r	hip_adduction_r	hip_rotation_r	knee_angle_r	knee_angle_r_beta	ankle_angle_r	subtalar_angle_r	mtp_angle_r	hip_flexion_l	hip_adduction_l	hip_rotation_l	knee_angle_l	knee_angle_l_beta	ankle_angle_l	subtalar_angle_l	mtp_angle_l	lumbar_extension	lumbar_bending	lumbar_rotation	arm_flex_r	arm_add_r	arm_rot_r	elbow_flex_r	pro_sup_r	wrist_flex_r	wrist_dev_r	arm_flex_l	arm_add_l	arm_rot_l	elbow_flex_l	pro_sup_l	wrist_flex_l	wrist_dev_l
      0.43500000	    -12.41387843	     -3.04444558	      4.43963820	     -0.68596147	      0.93838134	      0.33634470	     41.56218872	     -1.04325417	    -12.82267425	     37.74662300	      0.65880285	      8.05020156	      0.00000000	      0.00000000	      6.15599143	     -6.08665593	      5.77614718	    111.15353637	      1.93999518	     -9.07901709	      0.00000000	      0.00000000	    -16.90745970	     11.33047729	    -10.25517103	    -33.82927673	    -29.20379192	    -23.93568378	     93.09639511	     89.13178858	      0.00000000	      0.00000000	    -13.77107587	    -19.82549677	     -4.12383522	     96.60262401	     87.13840516	      0.00000000	      0.00000000
      0.44000000	    -12.38801581	     -2.99881457	      3.91647301	     -0.65781205	      0.93803473	      0.33765828	     40.69063369	     -0.62517679	    -12.17920295	     39.89933286	      0.69637473	     10.65669551	      0.00000000	      0.00000000	      8.57639928	     -6.11235223	      6.04209341	    113.73957141	      1.98513001	     -8.92874990	      0.00000000	      0.00000000	    -17.07362902	     10.86026514	     -9.45736400	    -30.58093786	    -29.65720291	    -22.12398025	     92.48963406	     88.97756286	      0.00000000	      0.00000000	    -14.07753634	    -18.56738260	     -4.47270553	     92.64899763	     83.67568834	      0.00000000	      0.00000000
      0.44500000	    -12.33440455	     -2.90749126	      3.38493082	     -0.62955939	      0.93819560	      0.33902505	     39.58358252	     -0.21306160	    -11.43487057	     41.67394622	      0.72734757	     13.03020835	      0.00000000	      0.00000000	     11.02600305	     -6.10994058	      6.26976927	    116.00536582	      2.02467558	     -8.82775855	      0.00000000	      0.00000000	    -17.22615521	     10.32111892	     -8.64500397	    -27.36983956	    -29.88689395	    -20.46095538	     91.96465362	     88.79154025	      0.00000000	      0.00000000	    -14.41804160	    -17.47597338	     -4.38900957	     89.26203409	     70.26114356	      0.00000000	      0.00000000
      0.45000000	    -12.24591183	     -2.76786820	      2.85210778	     -0.60114004	      0.93882531	      0.34038220	     38.23250589	      0.16053335	    -10.66109613	     43.07138194	      0.75173743	     15.12242549	      0.00000000	      0.00000000	     13.47583953	     -6.07179397	      6.43516064	    117.94126805	      2.05846345	     -8.73382624	      0.00000000	      0.00000000	    -17.36233765	      9.72029962	     -7.87424957	    -24.28298356	    -29.98777184	    -18.63073716	     91.70639469	     84.50616546	      0.00000000	      0.00000000	    -14.81006467	    -16.49854555	     -4.36242390	     86.58882745	     50.15012974	      0.00000000	      0.00000000
      0.45500000	    -12.11585219	     -2.57194592	      2.32480488	     -0.57251237	      0.93988618	      0.34168114	     36.63955662	      0.45801148	     -9.89981891	     44.11504716	      0.76995282	     16.91100225	      0.00000000	      0.00000000	     15.89773596	     -5.98347822	      6.51703460	    119.54419660	      2.08643983	     -8.61208816	      0.00000000	      0.00000000	    -17.49723573	      9.06107193	     -7.14423764	    -21.25997551	    -29.84617157	    -17.60913590	     91.38051454	     88.40815195	      0.00000000	      0.00000000	    -15.12639426	    -15.57001711	     -5.12033278	     83.12016659	     44.90267709	      0.00000000	      0.00000000
